<?xml version="1.0" encoding="utf-8"?>
<!-- Generator: Adobe Illustrator 24.0.1, SVG Export Plug-In . SVG Version: 6.00 Build 0)  -->
<svg version="1.1" id="Layer_1" xmlns="http://www.w3.org/2000/svg" xmlns:xlink="http://www.w3.org/1999/xlink" x="0px" y="0px"
	 viewBox="0 0 841.89 595.28" style="enable-background:new 0 0 841.89 595.28;" xml:space="preserve">
<style type="text/css">
	.st0{fill:#F4E3D7;}
	.st1{fill:#DEAB88;}
	.st2{fill:#794523;}
	.st3{fill:#F26722;}
	.st4{fill:#07232B;}
	.st5{fill:#F9F9FA;}
	.st6{fill:#D18D60;}
	.st7{fill:#E9C6AF;}
	.st8{fill:none;stroke:#07232B;stroke-width:12;stroke-linecap:round;}
	.st9{fill:#F05027;stroke:#07232B;stroke-width:12;stroke-linecap:round;}
	.st10{fill:none;stroke:#07232B;stroke-width:12.0008;stroke-linecap:round;}
	.st11{fill:#DEAB88;stroke:#07232B;stroke-width:12;stroke-linecap:round;}
</style>
<g id="layer1">
	<path id="path4096" class="st0" d="M257.31,985.65c0,0-39.6,0.9-57.6-34.5s-18-50.1-18-50.1s-49.8-30.3-81.6-72s-35.1-69-36.3-81.9
		s0.9-17.4,0.9-17.4s-34.2-52.2-44.4-102.3c-10.2-50.1-9-112.5-9-112.5s-45.9-15.6-49.5-69s15-73.5,15-73.5s-23.1-10.8-18.6-38.1
		c4.5-27.3,34.8-36,23.4-55.2c-11.4-19.2-44.1-21-54.3-51c-10.2-30-33-145.5-30-263.1s16.8-193.2,64.8-204
		c48-10.8,130.2,68.4,178.8,135s112.2,193.2,112.2,193.2l53.4,38.4c0,0,18.43-4.94,35.62,0.36c17.18,5.3,82.73,0.21,82.73,0.21
		s18.67-16.97,40.52-14.42c21.85,2.55,49.21,17.61,49.21,17.61l115.82-3.82l50.91-42.85c0,0,55.79-132.37,147.01-234.19
		s157.4-119.22,183.28-47.09c25.88,72.12,26.3,256.26,10.18,358.08s-59.19,108.32-59.19,108.32s-21,6-16.2,22.2s30.9,23.4,26.1,48
		s-19.5,33.9-19.5,33.9s31.45,45.11,14.06,89.66c-17.39,44.55-47.94,52.61-47.94,52.61s8.06,64.49-11.46,124.31
		s-43.7,92.91-43.7,92.91s19.52,30.12-31.82,95.04c-51.34,64.91-88.25,74.25-88.25,74.25s-1.7,42.85-25.46,64.91
		s-48.37,21.21-48.37,21.21s-10.18,19.94-50.91,39.88c-40.73,19.94-47.94,16.97-47.94,16.97s-9.33,13.58-25.88,15.27
		c-16.55,1.7-18.24-4.67-35.21,7.64c-16.97,12.3-30.55,12.73-52.61,11.46c-22.06-1.27-56.85-19.94-56.85-19.94l-26.73-2.55
		l-17.39-14.43l-47.94-14.42L257.31,985.65z"/>
	<path id="path4079" class="st1" d="M-70.46,113.52c0,0-11.4-125.4-3.6-223.8s28.2-120,61.2-109.2s73.8,54.6,139.8,138
		s88.8,140.4,84.6,180c-4.2,39.6-45,31.8-37.2,93.6s19.8,90.6-6.6,96.6c-26.4,6-19.5-26.7-32.4-30.3c-12.9-3.6-23.4,12.9-23.4,12.9
		s-39.9-3-75-52.5s-26.1-78.3-45.3-91.8C-27.56,113.52-70.46,113.52-70.46,113.52L-70.46,113.52z"/>
	<path id="path4079-6" class="st1" d="M1004.82,114.13c0,0,11.4-125.4,3.6-223.8s-28.2-120-61.2-109.2s-73.8,54.6-139.8,138
		s-88.8,140.4-84.6,180c4.2,39.6,45,31.8,37.2,93.6s-19.8,90.6,6.6,96.6s19.5-26.7,32.4-30.3c12.9-3.6,23.4,12.9,23.4,12.9
		s39.9-3,75-52.5s26.1-78.3,45.3-91.8C961.92,114.13,1004.82,114.13,1004.82,114.13L1004.82,114.13z"/>
	<path id="path4098" class="st2" d="M623.21,581.65l-19.09,41.79l53.67,5.52L623.21,581.65z"/>
	<path id="path4100" class="st2" d="M307.34,579.53l-32.67,50.06l50.91-5.73L307.34,579.53z"/>
	<path id="path4102" class="st3" d="M139.55,538.59c0,0,8.27,68.73,54.94,82.73c46.67,14,82.52,8.49,82.52,8.49l31.4-50.7
		l-22.06-19.09c0,0-16.55,58.34-60.88,52.18c-44.34-6.15-58.34-51.76-58.34-51.76l-4.24-28L139.55,538.59z"/>
	<path id="path4104" class="st4" d="M163.94,533.5c0,0,6.58,71.91,54.31,78.91c47.73,7,69.58-49,69.58-49l-70.43-31.18L163.94,533.5
		z"/>
	<path id="path4102-3" class="st3" d="M791.42,537.56c0,0-8.27,68.73-54.94,82.73c-46.67,14-82.52,8.49-82.52,8.49l-31.4-50.7
		l22.06-19.09c0,0,16.55,58.34,60.88,52.18s58.34-51.76,58.34-51.76l4.24-28L791.42,537.56z"/>
	<path id="path4104-9" class="st4" d="M767.03,532.47c0,0-6.58,71.91-54.31,78.91c-47.73,7-69.58-49-69.58-49l70.43-31.18
		L767.03,532.47z"/>
	<path id="path4124-5" class="st5" d="M270.83,566.42c0,0-21.09-13.64-51.16-19.84c-21.9-4.51-39.3-2.66-39.3-2.66
		s8.55,19.5,31.95,22.8S270.83,566.42,270.83,566.42z"/>
	<path id="path4124-5-2" class="st5" d="M661.23,566.52c0,0,21.09-13.64,51.16-19.84c21.9-4.51,39.3-2.66,39.3-2.66
		s-8.55,19.5-31.95,22.8C696.34,570.12,661.23,566.52,661.23,566.52z"/>
	<path id="path4222" class="st6" d="M-56.66,113.52c0,0-10.37-82.36-9.25-156c1.66-108.4,16.36-161.94,39.85-163.8
		c22.82-1.8,84.28,56.83,134.06,123.56c45.55,61.06,77.69,127.29,76.54,154.24c-2.4,56.4-49.8,48.3-36,120.6
		c9.75,51.09,5.75,56.8-5.5,48.11c-11.24-8.7-27.12-7.33-36.7,5.2c-6.84,8.94-32.55-4.28-54.41-25.4c-26.7-25.8-42.9-77.1-42.9-77.1
		s8.7,73.5,55.5,104.1s50.4,24.6,50.4,24.6s1.2-19.2,20.1-13.5c18.9,5.7,13.5,36,37.2,29.1s1.8-89.7,1.8-89.7s-7.8-16.8,18.9-62.1
		c26.7-45.3,18.3-74.4,9.6-94.5s-76.5-126-101.4-157.5s-110.4-123.3-139.5-103.2c-29.1,20.1-41.1,77.7-41.1,191.1
		s11.4,144.6,11.4,144.6L-56.66,113.52z"/>
	<path id="path4222-6" class="st6" d="M988.72,113.62c0,0,10.37-82.36,9.25-156c-1.66-108.4-16.36-161.94-39.85-163.8
		c-22.82-1.8-84.28,56.83-134.06,123.56c-45.55,61.06-77.69,127.29-76.54,154.24c2.4,56.4,49.8,48.3,36,120.6
		c-9.75,51.09-5.75,56.8,5.49,48.11c11.24-8.7,27.12-7.33,36.7,5.2c6.84,8.94,32.55-4.28,54.41-25.4c26.7-25.8,42.9-77.1,42.9-77.1
		s-8.7,73.5-55.5,104.1s-50.4,24.6-50.4,24.6s-1.2-19.2-20.1-13.5c-18.9,5.7-13.5,36-37.2,29.1s-1.8-89.7-1.8-89.7
		s7.8-16.8-18.9-62.1c-26.7-45.3-18.3-74.4-9.6-94.5c8.7-20.1,76.5-126,101.4-157.5s110.4-123.3,139.5-103.2s41.1,77.7,41.1,191.1
		s-11.4,144.6-11.4,144.6L988.72,113.62z"/>
	<path id="path4244" class="st7" d="M746.14,894.72c0,0,9-51.6,49.8-90.6s69-78,69-78s17.4,49.2-33,100.2s-84,75-84,75
		L746.14,894.72z"/>
	<path id="path4246" class="st1" d="M774.63,883.02c0,0,0.2-18.82,17.96-48.05c20.03-32.95,43.99-51.39,59.32-73.69
		c17.38-25.29,16.94-28.86,16.94-28.86l-10.5,2.7l-85.8,96.3l-27.9,67.8l13.5-4.5L774.63,883.02z"/>
	<path id="path4244-2" class="st7" d="M185.92,894.62c0,0-9-51.6-49.8-90.6s-69-78-69-78s-17.4,49.2,33,100.2c50.4,51,84,75,84,75
		L185.92,894.62z"/>
	<path id="path4246-7" class="st1" d="M157.43,882.92c0,0-0.2-18.82-17.96-48.05c-20.03-32.95-43.99-51.39-59.32-73.69
		c-17.39-25.29-16.94-28.86-16.94-28.86l10.5,2.7l85.8,96.3l27.9,67.8l-13.5-4.5L157.43,882.92z"/>
	<path id="path4339-2" class="st1" d="M866.77,305.35c0,0,14.53,11.18,23.4,5.7c8.09-4.99,4.15-18.04,4.15-18.04
		s20.4,34.5,11.1,38.7s-27-9.3-27-9.3L866.77,305.35z"/>
	<path id="path4339" class="st6" d="M874.74,316.8c0,0,14.53,11.18,23.4,5.7c8.09-4.99,4.15-18.04,4.15-18.04s20.4,34.5,11.1,38.7
		s-27-9.3-27-9.3L874.74,316.8z"/>
	<path id="path4339-2-5" class="st1" d="M65.29,305.25c0,0-14.53,11.18-23.4,5.7c-8.09-4.99-4.15-18.04-4.15-18.04
		s-20.4,34.5-11.1,38.7c9.3,4.2,27-9.3,27-9.3L65.29,305.25z"/>
	<path id="path4339-8" class="st6" d="M57.32,316.71c0,0-14.53,11.18-23.4,5.7c-8.09-4.99-4.15-18.04-4.15-18.04
		s-20.4,34.5-11.1,38.7c9.3,4.2,27-9.3,27-9.3L57.32,316.71z"/>
	<path id="path5011" class="st8" d="M466.02,989.58c0,0-87.4,54.31-117.1,48.79c-29.7-5.52-68.73-24.18-95.46-65.34
		c-26.73-41.15-19.09-85.28,6.36-98.43"/>
	<path id="path5013" class="st8" d="M236.92,911.51c0,0-14.85-24.18-2.55-47.94c12.3-23.76,23.76-28,23.76-28"/>
	<path id="path5015" class="st8" d="M236.07,858.48c0,0-11.03-2.55-9.76-23.76c1.27-21.21,9.33-22.06-2.55-41.15
		c-11.88-19.09-48.79-53.88-48.79-53.88"/>
	<path id="path5025" class="st8" d="M57.4,521.27c0,0-80.18-5.46-92.78-61.26c-12.6-55.8,15.14-91.14,15.14-91.14
		s-22.2-10.8-21.6-38.4s49.21-36.51,15.8-63.52c-25.2-20.38-59,6.52-72.8-200.48s7.8-383.4,141-277.2
		c133.2,106.2,210.6,296.4,210.6,296.4s29.89,12.43,37.59,43.38c8.3,33.32,0.81,55.02-22.59,67.02c-23.4,12-40.67,0.3-40.67,0.3"/>
	<path id="path5027" class="st8" d="M-14.76,179.37c-7.91,19.84-6.07,36.5,25.13,58.1c31.2,21.6,37.89,40.8,15.6,72
		c-22.5,31.5,4.8,43.2,20.4,20.4c15.6-22.8,25.2-31.2,49.2-28.8c24,2.4,7.31-39.37,30-43.2c26.36-4.45,16.43,30.95,39.6,30.6
		c32.4-0.49,13.2-46.2,9.6-87c-3.6-40.8,4.8-49.2,20.4-68.4c15.6-19.2,29.4-46.2,1.8-106.2c-27.6-60-178.75-272.57-234-245.4
		c-58.71,30.29-41.1,273.76-32.64,334.97c38.8-8.65,69.85,5.94,79.18,40.73c9.33,34.79,19.11,55.18,42.43,78.06
		c28.88,28.34,56.64,36.82,56.64,36.82"/>
	<path id="path5031" class="st8" d="M291.47,168.77c0,0,16.8,5.36,17.4,29.7c0.6,24.3-24,38.7-45.9,43.2s-35.7-3.9-35.7-3.9"/>
	<path id="path5048" class="st8" d="M310.97,196.67c0,0,26.74,0.39,27.6,29.4c1.2,40.5-58.8,51.9-58.8,51.9"/>
	<path id="path5058-0" class="st9" d="M498.69,957.34c11.24-19.73,11.24-39.88,11.24-39.88s11.81-2.49,24.11-11.94
		s16.2-22.8,16.2-22.8s10.77-28.61-20.4-31.35c-20.34-1.79-63.83,18.55-63.83,18.55s-43.49-20.34-63.83-18.55
		c-31.17,2.74-20.4,31.35-20.4,31.35s3.9,13.35,16.2,22.8c12.3,9.45,24.11,11.94,24.11,11.94s0,20.15,11.24,39.88
		c15.9,27.9,32.67,32.24,32.67,32.24S482.79,985.24,498.69,957.34L498.69,957.34z"/>
	<path id="path5445" class="st8" d="M280.54,108.24c0,0,25.4,11.6,44.62,41.72c14.22,22.27,18.67,38.18,18.67,38.18
		s41.61,17.55,44.97,55.15c4.11,45.96-53.03,69.16-53.03,69.16"/>
	<path id="path5447" class="st8" d="M303.72,123.6c1.37,1.24,35.87-17.34,77.02,22.12c41.15,39.46,51.34,118.79,51.34,118.79"/>
	<path id="path5449" class="st8" d="M360.8,130.44c0,0,32.37-15.4,56-1.48c27.37,16.12,29.7,76.58,29.7,76.58"/>
	<path id="path5451" class="st8" d="M419.16,129.33c0,0,3.81-9,24.27-15.49c15.49-5.13,33.4-3.62,45.18,0
		c20.46,6.49,24.27,15.49,24.27,15.49"/>
	<path id="path5011-5" class="st8" d="M466.02,989.58c0,0,87.4,54.31,117.1,48.79c29.7-5.52,68.73-24.18,95.46-65.34
		s19.09-85.28-6.36-98.43"/>
	<path id="path5013-6" class="st8" d="M695.12,911.51c0,0,14.85-24.18,2.55-47.94c-12.3-23.76-23.76-28-23.76-28"/>
	<path id="path5015-9" class="st8" d="M695.97,858.48c0,0,11.03-2.55,9.76-23.76s-9.33-22.06,2.55-41.15
		c11.88-19.09,48.79-53.88,48.79-53.88"/>
	<path id="path5025-1" class="st10" d="M876.33,519.57c0,0,78.48-3.76,91.08-59.56c12.6-55.8-15.14-91.14-15.14-91.14
		s22.2-10.8,21.6-38.4s-49.21-36.51-15.8-63.52c25.2-20.38,59,6.52,72.8-200.48c13.8-207-7.8-383.4-141-277.2
		s-210.6,296.4-210.6,296.4s-29.89,12.43-37.59,43.38c-8.3,33.32-0.81,55.02,22.59,67.02c23.4,12,40.67,0.3,40.67,0.3"/>
	<path id="path5031-0" class="st8" d="M640.57,168.77c0,0-16.8,5.36-17.4,29.7c-0.6,24.3,24,38.7,45.9,43.2
		c21.9,4.5,35.7-3.9,35.7-3.9"/>
	<path id="path5048-9" class="st8" d="M621.07,196.67c0,0-26.74,0.39-27.6,29.4c-1.2,40.5,58.8,51.9,58.8,51.9"/>
	<path id="path5062-8-6" class="st8" d="M573.57,1038.46c0,0-9.05,21.01-35.6,17.71c-26.55-3.3-25.73,18.44-49.05,19.95
		c-17.76,1.98-35.15,0.68-45.8,0c-23.32-1.51-22.5-23.25-49.05-19.95s-35.6-17.71-35.6-17.71"/>
	<path id="path5445-8" class="st8" d="M651.5,108.24c0,0-25.4,11.6-44.62,41.72c-14.22,22.27-18.67,38.18-18.67,38.18
		s-41.61,17.55-44.97,55.15c-4.11,45.96,53.03,69.16,53.03,69.16"/>
	<path id="path5447-9" class="st8" d="M628.32,123.6c-1.37,1.24-35.87-17.34-77.02,22.12c-41.15,39.46-51.34,118.79-51.34,118.79"/>
	<path id="path5449-1" class="st8" d="M571.23,130.44c0,0-32.37-15.4-56-1.48c-27.37,16.12-29.7,76.58-29.7,76.58"/>
	<path id="path3934" class="st8" d="M71.03,586.95c0,0-15.51,66.19,37.52,127.22c40.47,46.58,60.5,53.86,93.69,101.33"/>
	<path id="path3936" class="st8" d="M11.63,510.59c0,0-10.18,118.79,47.52,204.5c57.7,85.7,81.08,79.39,108.24,131.15
		c27.15,51.76,15.64,69.13,32.62,100.5c19.5,36.03,57.7,36.49,57.7,36.49"/>
	<path id="path3938" class="st8" d="M65.74,730.32c0,0-12.6,28.8,21.6,79.2c34.2,50.4,96,89.4,96,89.4"/>
	<path id="path5027-4" class="st8" d="M946.8,179.37c7.91,19.84,6.07,36.5-25.13,58.1c-31.2,21.6-37.89,40.8-15.6,72
		c22.5,31.5-4.8,43.2-20.4,20.4c-15.6-22.8-25.2-31.2-49.2-28.8c-24,2.4-7.31-39.37-30-43.2c-26.36-4.45-16.43,30.95-39.6,30.6
		c-32.4-0.49-13.2-46.2-9.6-87c3.6-40.8-4.8-49.2-20.4-68.4s-29.4-46.2-1.8-106.2s178.75-272.57,234-245.4
		c58.71,30.29,41.1,273.76,32.64,334.97c-38.8-8.65-69.85,5.94-79.18,40.73c-9.33,34.79-19.11,55.18-42.43,78.06
		c-28.88,28.34-56.64,36.82-56.64,36.82"/>
	<path id="path6231" class="st8" d="M324.31,623.86c0,0-95.46,20.36-140.43-8.49c-44.97-28.85-43.28-76.37-43.28-76.37
		s52.61-22.06,117.1,7.64c64.49,29.7,62.37,49.64,69.58,88.25c7.21,38.61,48.79,35.64,48.79,35.64"/>
	<path id="path6207" class="st8" d="M121.24,571.02c0,0,13.15,43.31,48.3,65.1c31.18,19.33,71.1,17.7,71.1,17.7"/>
	<path id="path6233" class="st8" d="M297.69,569.66c0,0-12.63-10.59-17.08-30.65c-3.51-15.86,2.97-29.7,2.97-29.7"/>
	<path id="path6235" class="st8" d="M140.61,539.01c0,0-27.31,9.52-37.33-10.59c-9.89-19.86,9.57-30.3,9.57-30.3"/>
	<path id="path6239" class="st8" d="M229.53,805.72c0,0,20.96-3.67,33.69-35.07c12.73-31.4,5.09-117.52,5.09-117.52"/>
	<path id="path6274" class="st8" d="M306.04,580.32c0,0-5.7,16.2-14.1,27.9c-8.4,11.7-17.4,20.4-17.4,20.4"/>
	<path id="path6276" class="st8" d="M286.24,564.72c0,0-17.53,57.67-69,47.1c-50.7-10.41-52.05-77.85-52.05-77.85"/>
	<path id="path6231-8" class="st8" d="M607.75,623.96c0,0,95.46,20.36,140.43-8.49c44.97-28.85,43.27-76.37,43.27-76.37
		s-52.61-22.06-117.1,7.64c-64.49,29.7-62.37,49.64-69.58,88.25c-7.21,38.61-48.79,35.64-48.79,35.64"/>
	<path id="path6207-9" class="st8" d="M810.82,571.12c0,0-13.15,43.31-48.3,65.1c-31.18,19.33-71.1,17.7-71.1,17.7"/>
	<path id="path6233-9" class="st8" d="M634.37,569.76c0,0,12.63-10.59,17.08-30.65c3.51-15.86-2.97-29.7-2.97-29.7"/>
	<path id="path6235-7" class="st8" d="M791.45,539.11c0,0,27.31,9.52,37.33-10.59c9.89-19.86-9.57-30.3-9.57-30.3"/>
	<path id="path6239-5" class="st8" d="M702.53,805.82c0,0-20.96-3.67-33.69-35.07s-5.09-117.52-5.09-117.52"/>
	<path id="path6274-8" class="st11" d="M626.02,580.42c0,0,5.7,16.2,14.1,27.9c8.4,11.7,17.4,20.4,17.4,20.4"/>
	<path id="path6276-7" class="st8" d="M645.82,564.82c0,0,17.53,57.67,69,47.1c50.7-10.41,52.05-77.85,52.05-77.85"/>
	<path id="path3934-6" class="st8" d="M861.03,587.05c0,0,15.51,66.19-37.52,127.22c-40.47,46.58-60.5,53.86-93.69,101.33"/>
	<path id="path3936-3" class="st8" d="M920.43,510.68c0,0,10.18,118.79-47.52,204.5c-57.7,85.7-81.08,79.39-108.24,131.15
		c-27.15,51.76-15.64,69.13-32.62,100.5c-19.5,36.03-57.7,36.49-57.7,36.49"/>
	<path id="path3938-0" class="st8" d="M866.32,730.42c0,0,12.6,28.8-21.6,79.2c-34.2,50.4-96,89.4-96,89.4"/>
	<path id="path6237-2-4" class="st8" d="M314.56,527.98c0,0,2.9,11.68,19.44,20.02c16.49,8.31,30.97,2.97,30.97,2.97"/>
	<path id="path6237-2-4-5" class="st8" d="M617.5,528.08c0,0-2.9,11.68-19.44,20.02c-16.49,8.31-30.97,2.97-30.97,2.97"/>
	<path id="path6270-4" class="st8" d="M592.05,363.46c0,0-17.82,17.82-45.82,16.97c-28-0.85-33.09-22.49-33.09-22.49"/>
	<path id="path6270-4-9" class="st8" d="M340.01,363.37c0,0,17.82,17.82,45.82,16.97c28-0.85,33.09-22.49,33.09-22.49"/>
</g>
</svg>
